<?xml version="1.0" encoding="UTF-8"?><svg id="Layer_2" xmlns="http://www.w3.org/2000/svg" viewBox="0 0 134.85 33.27"><defs><style>.cls-1{fill:#231f20;}</style></defs><g id="Layer_1-2"><path class="cls-1" d="M23.72,8.38c-.83-1.02-2.32-1.18-3.34-.35-.12.1-.23.2-.32.31l-3.46,4.43c.66.36,1.15.97,1.36,1.7l5.04-2.5c.13-.07.25-.15.37-.25,1.02-.83,1.18-2.32.35-3.34Z"/><path class="cls-1" d="M21.38,25.88c-1.82,1.06-3.94,1.66-6.2,1.66-6.83,0-12.36-5.53-12.36-12.36S8.35,2.82,15.18,2.82c2.27,0,4.4.61,6.23,1.68h4.55C23.21,1.72,19.4,0,15.18,0,6.8,0,0,6.8,0,15.18c0,8.38,6.8,15.18,15.18,15.18,4.21,0,8.02-1.71,10.77-4.48h-4.57Z"/><path class="cls-1" d="M14.17,12.63c.33-.14.7-.22,1.08-.22s.77.08,1.11.23l1.23-5.48c.03-.14.04-.29.04-.45,0-1.31-1.06-2.38-2.38-2.38s-2.38,1.06-2.38,2.38c0,.15.01.3.04.45l1.26,5.47Z"/><path class="cls-1" d="M13.92,12.76l-3.51-4.4c-.1-.11-.2-.22-.32-.31-1.02-.82-2.52-.66-3.34.36-.82,1.02-.66,2.52.36,3.34.12.1.24.18.37.25l5.06,2.45c.22-.73.71-1.34,1.38-1.69Z"/><path class="cls-1" d="M12.42,15.25c0-.16.02-.32.05-.47l-5.62.08c-.15,0-.3.03-.44.06-1.28.31-2.07,1.59-1.76,2.87.31,1.28,1.59,2.07,2.87,1.76.15-.04.29-.08.42-.14l5.03-2.5c-.34-.47-.54-1.04-.54-1.65Z"/><path class="cls-1" d="M13.14,17.12l-3.47,4.43c-.09.12-.16.25-.23.39-.56,1.19-.06,2.6,1.13,3.17,1.19.56,2.6.06,3.17-1.13.07-.14.12-.28.15-.42l1.21-5.49c-.78-.04-1.48-.4-1.97-.95Z"/><path class="cls-1" d="M21.09,21.91c-.07-.14-.14-.27-.23-.38l-3.51-4.39c-.49.55-1.19.9-1.97.93l1.27,5.48c.04.14.09.28.16.42.57,1.18,1.99,1.68,3.17,1.11,1.18-.57,1.68-1.99,1.11-3.17Z"/><path class="cls-1" d="M24.1,14.86c-.15-.03-.3-.05-.44-.06h-5.62c.02.14.05.29.05.45,0,.62-.21,1.2-.55,1.66l5.07,2.44c.13.06.28.11.43.14,1.28.3,2.56-.5,2.85-1.78.3-1.28-.5-2.56-1.78-2.85Z"/><path class="cls-1" d="M70.29,16.24l.52-.11c.49-.11.94-.24,1.37-.41.43-.17.8-.41,1.11-.73.31-.32.56-.74.74-1.27.18-.53.27-1.2.27-2.02,0-.62-.08-1.15-.23-1.59-.15-.44-.37-.81-.64-1.09-.27-.28-.6-.5-.99-.63-.39-.14-.82-.2-1.29-.2s-.97.04-1.48.11v16.38s-3.72,0-3.72,0V6.54c.39-.02.82-.05,1.28-.07.46-.02.94-.04,1.42-.06.49-.02.98-.03,1.47-.04.49-.01.97-.02,1.43-.02,1.11,0,2.08.12,2.91.36.82.24,1.51.59,2.05,1.03.55.44.95.99,1.21,1.64.26.65.39,1.37.39,2.16,0,.84-.14,1.63-.43,2.37-.28.74-.73,1.39-1.33,1.94-.6.55-1.38.99-2.31,1.31-.94.32-2.05.48-3.34.48h-.16l-.25-1.41Z"/><path class="cls-1" d="M86.6,12c.62,0,1.21.08,1.79.25.58.17,1.1.44,1.58.84.48.39.9.91,1.25,1.57.36.65.62,1.46.8,2.44v.16c-.12.14-.27.27-.46.39-.19.12-.44.22-.74.31-.3.09-.67.17-1.11.23-.44.07-.97.12-1.58.17l-4.04.28v.52c0,.47.06.91.2,1.32.13.4.33.75.59,1.04.26.29.59.52.99.68.4.17.86.25,1.38.25.43,0,.87-.04,1.34-.12.47-.08.92-.18,1.34-.3.43-.12.82-.24,1.17-.36.35-.12.62-.23.81-.33l.3.87c-.39.28-.83.57-1.31.86-.48.29-1,.56-1.55.8-.55.24-1.14.44-1.75.59-.62.15-1.25.22-1.9.22-.77,0-1.49-.11-2.14-.32-.66-.21-1.23-.56-1.71-1.03-.48-.47-.86-1.09-1.14-1.86-.28-.76-.42-1.69-.42-2.78,0-1.22.16-2.26.48-3.11.32-.85.76-1.54,1.33-2.06.57-.52,1.24-.9,2.01-1.14.77-.24,1.6-.36,2.49-.36ZM84.87,14.07c-.11.07-.2.22-.29.44-.09.22-.17.47-.23.77-.07.29-.12.6-.16.93-.04.33-.06.65-.06.94l4.02-.18c-.05-.36-.12-.72-.2-1.1-.09-.38-.21-.73-.36-1.05-.15-.32-.35-.58-.59-.79-.24-.21-.52-.31-.85-.31-.23,0-.45.03-.67.08-.22.05-.42.15-.6.28Z"/><path class="cls-1" d="M58.54,15.54c0,1.4-.19,2.66-.56,3.79-.37,1.13-.93,2.08-1.68,2.88-.75.79-1.68,1.4-2.79,1.83-1.11.42-2.41.64-3.89.64-1.52,0-2.81-.22-3.89-.65-1.08-.44-1.97-1.05-2.67-1.85-.7-.8-1.21-1.76-1.54-2.88-.33-1.12-.49-2.37-.49-3.75s.17-2.62.51-3.72c.34-1.1.86-2.04,1.56-2.82.7-.78,1.59-1.37,2.68-1.78,1.09-.41,2.38-.62,3.88-.62s2.78.21,3.88.62c1.11.41,2.03,1.01,2.77,1.78.74.78,1.3,1.71,1.67,2.82.37,1.1.56,2.34.56,3.72ZM54.75,15.56c0-1.08-.1-2.04-.29-2.89-.2-.85-.5-1.57-.91-2.17-.41-.6-.94-1.05-1.58-1.37-.64-.32-1.41-.47-2.31-.47-.78,0-1.51.08-2.18.24-.67.16-1.2.39-1.59.69-.39.3-.67.94-.85,1.94-.18.99-.27,2.34-.27,4.04,0,1.06.08,2.02.24,2.88.16.86.43,1.6.8,2.22.37.62.87,1.1,1.49,1.44.62.34,1.4.51,2.33.51s1.74-.08,2.37-.25c.63-.17,1.15-.39,1.58-.66.2-.13.37-.38.52-.77.15-.38.27-.85.37-1.4.1-.55.17-1.17.22-1.85.05-.68.08-1.39.08-2.11Z"/><path class="cls-1" d="M95.48,13.94l-1.37-.43v-.75s3.95-2.63,3.95-2.63h1s.05,2.13.05,2.13h3.86s-.16,1.33-.16,1.33c-.3.05-.65.09-1.07.13-.42.04-.82.08-1.21.12-.46.05-.93.08-1.41.11v6.85c0,.44.08.8.24,1.09.16.29.51.44,1.04.44.14,0,.33,0,.56-.03.23-.02.47-.04.73-.06.25-.02.51-.05.76-.08.25-.03.46-.06.62-.08v1.01c-.31.19-.66.38-1.07.56-.4.18-.83.35-1.27.5-.44.15-.9.27-1.36.36-.46.09-.9.14-1.32.14-.32,0-.63-.03-.94-.09-.31-.06-.58-.17-.83-.35-.24-.17-.44-.41-.59-.72-.15-.31-.22-.71-.22-1.21v-8.36Z"/><path class="cls-1" d="M112.9,15.24c-.28-.09-.58-.17-.9-.23-.31-.06-.62-.09-.92-.09-.21,0-.4.02-.57.05-.17.04-.32.1-.46.18-.14.08-.29.19-.44.31-.15.12-.31.28-.49.47v8.73s-3.65,0-3.65,0v-12.17s3.27,0,3.27,0l.32,1.94h.02c.09-.14.21-.31.35-.51.14-.2.28-.39.44-.58.16-.19.33-.36.51-.52.18-.16.36-.27.53-.33.31-.12.67-.19,1.08-.22.41-.03.84-.04,1.31-.04l-.41,3.01Z"/><path class="cls-1" d="M121.26,24.67c-2.09,0-3.68-.54-4.79-1.61-1.1-1.07-1.65-2.64-1.65-4.71,0-.97.14-1.85.41-2.64.27-.79.68-1.46,1.22-2,.54-.55,1.21-.97,2.02-1.26.81-.3,1.74-.44,2.79-.44,1.06,0,1.98.14,2.78.42.8.28,1.47.69,2.01,1.23.54.54.95,1.2,1.22,1.98.27.78.41,1.68.41,2.69,0,.98-.14,1.87-.41,2.65-.27.78-.68,1.45-1.22,2-.54.55-1.21.97-2.01,1.26-.8.29-1.73.44-2.78.44ZM118.61,18.34c0,1.59.2,2.76.6,3.51.4.75,1.07,1.13,2.01,1.13.37,0,.71-.03,1.03-.09.32-.06.59-.15.8-.27.13-.07.25-.23.36-.49.11-.25.2-.57.27-.95.07-.38.13-.81.17-1.3.04-.49.06-1,.06-1.53,0-1.55-.21-2.72-.62-3.49-.42-.77-1.08-1.16-1.99-1.16-.34,0-.68.03-1.01.1-.33.07-.63.17-.89.31-.14.07-.26.23-.36.49-.1.26-.18.57-.24.95-.07.38-.11.81-.14,1.29-.03.48-.04.98-.04,1.49Z"/><path class="cls-1" d="M134.84,24.67h-3.65s0-19.96,0-19.96l3.65-.71v20.67Z"/><path class="cls-1" d="M33.81,22.72c0,.51-.03.99-.09,1.45-.06.46-.18.89-.35,1.28-.17.4-.41.77-.72,1.11-.31.34-.71.66-1.19.95h3.01c.64-.4,1.17-.87,1.6-1.41.45-.56.78-1.21,1.01-1.94.22-.73.34-1.55.34-2.47V5.38h-3.6v17.35Z"/><rect class="cls-1" x="31.49" y="30.39" width="103.36" height="2.88"/></g></svg>