<?xml version="1.0" encoding="UTF-8"?><svg id="Layer_2" xmlns="http://www.w3.org/2000/svg" viewBox="0 0 734.5 154.39"><defs><style>.cls-1{fill:#231f20;}</style></defs><g id="Layer_1-2"><path class="cls-1" d="M154.85,63.4v86.87c0,2.28-1.85,4.12-4.12,4.12H4.12c-2.28,0-4.12-1.85-4.12-4.12V62.94c0-2.28,1.85-4.12,4.12-4.12h27.6c2.28,0,4.12,1.85,4.12,4.12v56.07h83.17v-23.89h-55.61c-2.28,0-4.12-1.85-4.12-4.12v-27.6c0-2.28,1.85-4.12,4.12-4.12h87.33c2.28,0,4.12,1.85,4.12,4.12Z"/><rect class="cls-1" x="58.82" width="95.57" height="35.84" rx="4.12" ry="4.12"/><rect class="cls-1" width="35.84" height="35.84" rx="4.12" ry="4.12"/><path class="cls-1" d="M184.74,62.9V.79h12.09v62.12h-12.09Z"/><path class="cls-1" d="M221.89,23.04v39.86h-12.09V.7h9.37l32.42,40.83V.79h12.09v62.12h-9.81l-31.98-39.86Z"/><path class="cls-1" d="M288.73,23.04v39.86h-12.09V.7h9.37l32.42,40.83V.79h12.09v62.12h-9.81l-31.98-39.86Z"/><path class="cls-1" d="M369.34,63.34c-4.38,0-8.38-.89-12-2.67-3.62-1.78-6.73-4.15-9.33-7.1s-4.6-6.32-6-10.12c-1.4-3.79-2.1-7.68-2.1-11.65s.75-8.12,2.23-11.92c1.49-3.8,3.56-7.15,6.22-10.07,2.66-2.92,5.79-5.24,9.42-6.97,3.62-1.72,7.56-2.58,11.83-2.58s8.38.92,12,2.76c3.62,1.84,6.72,4.25,9.29,7.23,2.57,2.98,4.56,6.37,5.96,10.16,1.4,3.8,2.1,7.65,2.1,11.57,0,4.15-.74,8.1-2.23,11.87-1.49,3.77-3.55,7.1-6.18,9.99-2.63,2.89-5.75,5.2-9.37,6.92-3.62,1.72-7.56,2.58-11.83,2.58ZM352.08,31.8c0,2.69.39,5.29,1.18,7.8.79,2.51,1.93,4.73,3.42,6.66,1.49,1.93,3.31,3.48,5.47,4.64s4.61,1.75,7.36,1.75,5.27-.6,7.4-1.8c2.13-1.2,3.93-2.79,5.39-4.77,1.46-1.98,2.57-4.22,3.33-6.7.76-2.48,1.14-5.01,1.14-7.58s-.41-5.29-1.23-7.8c-.82-2.51-1.97-4.73-3.46-6.66-1.49-1.93-3.3-3.46-5.43-4.6-2.13-1.14-4.54-1.71-7.23-1.71s-5.27.6-7.4,1.8c-2.13,1.2-3.94,2.77-5.43,4.73-1.49,1.96-2.61,4.18-3.37,6.66-.76,2.48-1.14,5.01-1.14,7.58Z"/><path class="cls-1" d="M412.35.7l16.82,47.05L445.82.7h12.7l-24.27,62.2h-10.16L399.65.7h12.7Z"/><path class="cls-1" d="M453.97,62.9L478.5.7h9.81l24.44,62.2h-12.79l-5.69-15.51h-21.82l-5.69,15.51h-12.79ZM483.41,13.75l-8.94,25.15h17.61l-8.67-25.15Z"/><path class="cls-1" d="M560.15,11.3h-19.8v51.6h-12.09V11.3h-19.89V.7h51.78v10.6Z"/><path class="cls-1" d="M591.78,63.34c-4.38,0-8.38-.89-12-2.67-3.62-1.78-6.73-4.15-9.33-7.1-2.6-2.95-4.6-6.32-6-10.12-1.4-3.79-2.1-7.68-2.1-11.65s.75-8.12,2.23-11.92c1.49-3.8,3.56-7.15,6.22-10.07,2.66-2.92,5.79-5.24,9.42-6.97,3.62-1.72,7.56-2.58,11.83-2.58s8.38.92,12,2.76c3.62,1.84,6.72,4.25,9.29,7.23,2.57,2.98,4.56,6.37,5.96,10.16,1.4,3.8,2.1,7.65,2.1,11.57,0,4.15-.74,8.1-2.23,11.87-1.49,3.77-3.55,7.1-6.18,9.99-2.63,2.89-5.75,5.2-9.37,6.92-3.62,1.72-7.56,2.58-11.83,2.58ZM574.52,31.8c0,2.69.39,5.29,1.18,7.8.79,2.51,1.93,4.73,3.42,6.66,1.49,1.93,3.31,3.48,5.47,4.64s4.61,1.75,7.36,1.75,5.27-.6,7.4-1.8c2.13-1.2,3.93-2.79,5.39-4.77,1.46-1.98,2.57-4.22,3.33-6.7.76-2.48,1.14-5.01,1.14-7.58s-.41-5.29-1.23-7.8c-.82-2.51-1.97-4.73-3.46-6.66-1.49-1.93-3.3-3.46-5.43-4.6-2.13-1.14-4.54-1.71-7.23-1.71s-5.27.6-7.4,1.8c-2.13,1.2-3.94,2.77-5.43,4.73-1.49,1.96-2.61,4.18-3.37,6.66-.76,2.48-1.14,5.01-1.14,7.58Z"/><path class="cls-1" d="M630.77,62.9V.7h27.51c2.86,0,5.5.6,7.93,1.8,2.42,1.2,4.51,2.77,6.26,4.73,1.75,1.96,3.12,4.18,4.12,6.66.99,2.48,1.49,4.98,1.49,7.49,0,4.03-1.01,7.7-3.02,11-2.01,3.3-4.75,5.68-8.19,7.14l14.63,23.39h-13.67l-13.05-20.85h-11.92v20.85h-12.09ZM642.86,31.45h15.16c1.11,0,2.15-.26,3.11-.79.96-.53,1.8-1.24,2.5-2.15s1.26-1.97,1.67-3.2c.41-1.23.61-2.54.61-3.94s-.23-2.8-.7-4.03c-.47-1.23-1.09-2.29-1.88-3.2-.79-.91-1.7-1.61-2.72-2.1-1.02-.5-2.06-.74-3.11-.74h-14.63v20.15Z"/><path class="cls-1" d="M726.97,16.99c-.41-.41-1.15-.96-2.23-1.67-1.08-.7-2.4-1.39-3.94-2.06-1.55-.67-3.23-1.24-5.04-1.71-1.81-.47-3.65-.7-5.52-.7-3.33,0-5.81.61-7.45,1.84-1.64,1.23-2.45,2.95-2.45,5.17,0,1.29.31,2.35.92,3.2.61.85,1.5,1.59,2.67,2.23,1.17.64,2.64,1.23,4.42,1.75,1.78.53,3.84,1.08,6.18,1.66,3.04.82,5.8,1.7,8.28,2.63,2.48.94,4.58,2.1,6.31,3.51s3.05,3.08,3.99,5.04c.93,1.96,1.4,4.37,1.4,7.23,0,3.33-.63,6.18-1.88,8.54-1.26,2.37-2.94,4.28-5.04,5.74-2.1,1.46-4.56,2.53-7.36,3.2s-5.72,1.01-8.76,1.01c-4.67,0-9.29-.7-13.84-2.1s-8.64-3.39-12.27-5.96l5.35-10.43c.52.53,1.47,1.21,2.85,2.06,1.37.85,2.99,1.69,4.86,2.54,1.87.85,3.94,1.56,6.22,2.15s4.61.88,7.01.88c6.66,0,9.99-2.13,9.99-6.4,0-1.4-.38-2.57-1.14-3.51-.76-.93-1.84-1.75-3.24-2.45s-3.1-1.34-5.08-1.93c-1.99-.58-4.2-1.2-6.66-1.84-2.98-.82-5.56-1.71-7.75-2.67-2.19-.96-4.02-2.09-5.47-3.37-1.46-1.28-2.56-2.8-3.29-4.56-.73-1.75-1.1-3.82-1.1-6.22,0-3.15.58-5.96,1.75-8.41,1.17-2.45,2.79-4.5,4.86-6.13,2.07-1.63,4.48-2.88,7.23-3.72,2.74-.85,5.69-1.27,8.85-1.27,4.38,0,8.41.69,12.09,2.06,3.68,1.37,6.89,2.99,9.64,4.86l-5.35,9.81Z"/><path class="cls-1" d="M226.44,146.06c-4.79,4.97-10.31,7.45-16.56,7.45-3.97,0-7.71-.88-11.21-2.63-3.5-1.75-6.56-4.1-9.15-7.05-2.6-2.95-4.64-6.35-6.13-10.21-1.49-3.85-2.23-7.85-2.23-12s.75-8.28,2.23-12.05c1.49-3.77,3.56-7.07,6.22-9.9,2.66-2.83,5.78-5.08,9.37-6.75,3.59-1.67,7.49-2.5,11.7-2.5,5.66,0,10.51,1.23,14.54,3.68,4.03,2.45,7.07,5.75,9.11,9.9l-9.03,6.66c-1.52-3.09-3.61-5.46-6.26-7.1-2.66-1.64-5.59-2.45-8.81-2.45-2.57,0-4.89.56-6.96,1.67-2.07,1.11-3.84,2.63-5.3,4.56s-2.6,4.15-3.42,6.66-1.23,5.17-1.23,7.97.44,5.65,1.31,8.19,2.1,4.75,3.68,6.62,3.43,3.34,5.56,4.42c2.13,1.08,4.48,1.62,7.05,1.62,5.72,0,10.89-2.83,15.51-8.5v-4.38h-12.53v-8.85h22.52v31.98h-9.99v-7.01Z"/><path class="cls-1" d="M246.86,153.07v-62.2h27.51c2.86,0,5.5.6,7.93,1.8,2.42,1.2,4.51,2.77,6.26,4.73,1.75,1.96,3.12,4.18,4.12,6.66.99,2.48,1.49,4.98,1.49,7.49,0,4.03-1.01,7.69-3.02,10.99-2.01,3.3-4.75,5.68-8.19,7.14l14.63,23.39h-13.67l-13.05-20.85h-11.92v20.85h-12.09ZM258.95,121.62h15.16c1.11,0,2.15-.26,3.11-.79.96-.53,1.8-1.24,2.5-2.15s1.26-1.97,1.67-3.2c.41-1.23.61-2.54.61-3.94s-.23-2.8-.7-4.03c-.47-1.23-1.09-2.29-1.88-3.2s-1.7-1.61-2.72-2.1c-1.02-.5-2.06-.74-3.11-.74h-14.63v20.15Z"/><path class="cls-1" d="M305.91,153.07v-62.12h12.09v62.12h-12.09Z"/><path class="cls-1" d="M330.96,153.07v-62.2h22.6c5.08,0,9.53.82,13.36,2.45,3.82,1.64,7.02,3.85,9.59,6.66,2.57,2.8,4.5,6.09,5.78,9.86,1.28,3.77,1.93,7.78,1.93,12.05,0,4.73-.72,9.01-2.15,12.83-1.43,3.83-3.49,7.1-6.18,9.81-2.69,2.72-5.91,4.82-9.68,6.31-3.77,1.49-7.99,2.23-12.66,2.23h-22.6ZM372.05,121.88c0-2.98-.41-5.72-1.23-8.24-.82-2.51-2.01-4.67-3.59-6.48-1.58-1.81-3.52-3.21-5.83-4.21-2.31-.99-4.92-1.49-7.84-1.49h-10.51v41h10.51c2.98,0,5.62-.53,7.93-1.58,2.31-1.05,4.23-2.5,5.78-4.34s2.73-4.01,3.55-6.53c.82-2.51,1.23-5.23,1.23-8.15Z"/></g></svg>