<?xml version="1.0" encoding="UTF-8"?><svg id="Layer_2" xmlns="http://www.w3.org/2000/svg" viewBox="0 0 1240.97 281.48"><defs><style>.cls-1,.cls-2{fill:#58595b;}.cls-2{fill-rule:evenodd;}</style></defs><g id="Layer_1-2"><path class="cls-1" d="M357.02,159.55c0-8.01,1.17-15.29,3.65-21.84s5.84-12.08,10.07-16.74c4.23-4.66,9.34-8.3,15.33-10.77,5.99-2.47,12.41-3.79,19.27-3.79s13.43,1.31,19.27,3.79c5.84,2.47,10.95,5.97,15.33,10.63,4.38,4.66,7.74,10.19,10.22,16.74s3.65,13.83,3.65,21.84-1.17,15.29-3.65,21.84c-2.48,6.55-5.84,12.08-10.22,16.74-4.38,4.66-9.49,8.15-15.33,10.63-5.84,2.33-12.26,3.64-19.27,3.64s-13.28-1.31-19.27-3.64c-5.98-2.47-11.09-6.11-15.33-10.77-4.23-4.66-7.59-10.19-10.07-16.74-2.48-6.55-3.65-13.83-3.65-21.84v.29ZM388.12,181.09c4.09,5.24,9.78,7.86,17.08,7.86s12.99-2.62,17.23-7.86c4.23-5.24,6.28-12.52,6.28-21.84s-2.04-16.74-6.28-21.84-9.93-7.72-17.23-7.72-12.99,2.62-17.08,7.72c-4.09,5.1-6.13,12.38-6.13,21.84s2.04,16.6,6.13,21.84Z"/><path class="cls-1" d="M493.37,130.87v20.24h33.58v21.84h-33.58v37.27h-23.94v-101.91h67.74v22.57h-43.79Z"/><path class="cls-1" d="M576.44,130.87v20.24h33.58v21.84h-33.58v37.27h-23.94v-101.91h67.74v22.57h-43.79Z"/><path class="cls-1" d="M635.57,210.21v-101.91h23.94v101.91h-23.94Z"/><path class="cls-1" d="M742.28,139.6l-.15.44c-2.19-3.35-4.96-5.82-8.32-7.43s-6.86-2.47-10.51-2.47c-7.45,0-13.14,2.62-17.23,7.86-4.09,5.24-6.13,12.38-6.13,21.55s2.19,16.45,6.57,21.55c4.38,5.09,10.07,7.57,17.08,7.57,4.38,0,8.47-1.02,12.12-3.06s6.42-5.24,8.32-9.46l23.65,6.26c-3.65,9.32-9.34,16.6-17.08,21.98-7.74,5.39-16.79,7.86-27.15,7.86-6.86,0-13.28-1.31-19.27-3.64-5.98-2.47-11.09-6.11-15.33-10.77-4.23-4.66-7.59-10.19-10.07-16.74-2.48-6.55-3.65-13.83-3.65-21.84s1.17-15.29,3.65-21.84,5.84-12.08,10.07-16.74c4.23-4.66,9.34-8.3,15.33-10.77,5.99-2.47,12.41-3.79,19.27-3.79,9.78,0,18.39,2.33,25.69,7.13,7.3,4.8,12.99,11.5,17.08,20.09l-23.94,6.26Z"/><path class="cls-1" d="M851.92,187.5v22.71h-69.63v-101.91h68.76v22.57h-44.82v17.03h34.6v21.25h-34.6v18.34h45.69Z"/><path class="cls-1" d="M967.54,108.3l-.29,102.2h-23.36v-26.93c0-11.21.29-19.8.73-25.77.44-5.97.58-9.03.44-9.03h-.15l-1.17,2.04c-.73,1.31-1.61,2.91-2.48,4.66-.88,1.75-1.75,3.49-2.63,5.24-.88,1.75-1.46,3.06-1.9,3.79l-11.09,20.67h-12.12l-11.09-20.67c-.29-.73-.88-2.04-1.75-3.79-.88-1.75-1.75-3.49-2.63-5.24-.88-1.75-1.75-3.35-2.48-4.66l-1.17-2.04h-.29c-.15,0,0,2.91.44,8.88.44,5.97.73,14.56.73,25.77v26.93h-23.21v-101.76h22.48l17.52,30.86c3.21,5.68,5.25,9.75,6.13,12.08.88,2.33,1.31,3.49,1.46,3.49h.15l.29-.87c.15-.58.58-1.46,1.17-2.77.58-1.31,1.31-2.91,2.34-4.95,1.02-2.04,2.34-4.51,3.94-7.28l17.52-30.86h22.48Z"/><path class="cls-1" d="M1046.23,194.19h-36.93l-5.11,16.01h-25.4l36.64-101.91h24.82l36.64,101.91h-25.55l-5.11-16.01ZM1039.22,172.79l-7.01-22.13c-.58-1.89-1.17-3.79-1.61-5.68-.44-1.89-.88-3.49-1.31-4.95-.44-1.46-.73-2.62-1.02-3.49l-.44-1.31h-.15l-.29,1.31c-.29.87-.58,2.04-1.02,3.49-.44,1.46-.88,3.06-1.46,4.95l-1.75,5.68-7.15,22.13h23.21Z"/><path class="cls-1" d="M1159.08,108.3v22.57h-28.47v79.34h-23.94v-79.34h-28.17v-22.57h80.58Z"/><path class="cls-1" d="M1240.97,187.5v22.71h-69.63v-101.91h68.76v22.57h-44.82v17.03h34.6v21.25h-34.6v18.34h45.69Z"/><path class="cls-2" d="M77.18,146.47c-17.14,41.05-12.65,85.43,15.55,113.63,10.13,10.13,22.34,17.19,35.74,21.3-32.03,1.02-62.21-9.17-84.29-31.24C9.14,215.12,4.05,159.65,26.23,108.78L0,89.38l86.25-15.84,14.16,90.12-23.24-17.19h0Z"/><path class="cls-2" d="M65.09,52.23C125.52-8.2,214.16-17.56,263.03,31.31c23.13,23.13,33.21,55.17,31.01,88.9-3.92-14.73-11.29-28.17-22.28-39.15-39.98-39.98-112.5-32.32-161.93,17.11-2.35,2.35-4.61,4.76-6.78,7.21l-7.11-45.28-45.32,8.33c4.44-5.58,9.26-11,14.47-16.21h0Z"/><path class="cls-2" d="M242.53,165.57c12.15-32,7.59-66.02-14.81-87-8.04-7.53-17.61-12.66-28.02-15.49,24.61-1.59,48.08,5.49,65.61,21.91,27.83,26.07,33.13,68.61,17.35,108.28l20.66,14.27-65.94,14.35-13.15-68.96,18.3,12.64h0Z"/><path class="cls-2" d="M254.19,237.75c-44.95,47.98-112.89,57.41-151.7,21.04-18.37-17.21-26.92-41.6-26.08-67.6,3.38,11.23,9.39,21.38,18.11,29.55,31.75,29.75,87.33,22.04,124.1-17.22,1.75-1.87,3.43-3.78,5.03-5.72l6.61,34.64,34.65-7.54c-3.28,4.41-6.85,8.69-10.72,12.83h0Z"/></g></svg>