<?xml version="1.0" encoding="UTF-8"?><svg id="Layer_2" xmlns="http://www.w3.org/2000/svg" viewBox="0 0 370.24 232.82"><defs><style>.cls-1{fill:#231f20;}</style></defs><g id="Layer_1-2"><path class="cls-1" d="M92.92,230.35c-8.63-1.74-17.04-4.45-25.07-8.08-8.57-3.91-16.64-8.86-24-14.73-7.77-6.22-14.72-13.4-20.67-21.38-3.07-4.12-5.85-8.45-8.33-12.96-1.32-2.24-2.4-4.62-3.57-6.96l-1.57-3.6c-.55-1.2-1.03-2.42-1.48-3.67C-3.64,128.18-1.67,93.78,13.62,64.54,28.91,35.31,56.04,14.07,88.09,6.24c-1.04.36-2.07.74-3.08,1.12-8.26,3.14-16.13,7.19-23.48,12.09-12.85,8.64-23.84,19.76-32.32,32.7-5.24,7.96-9.44,16.56-12.51,25.58-1.36,3.27-2.55,6.61-3.57,10-1.48,5.02-2.6,10.14-3.36,15.32-.71,5.18-1.08,10.4-1.09,15.63.07,34.52,16.89,66.87,45.1,86.76,2.45,1.97,4.98,3.89,7.69,5.7,7.35,4.92,15.23,8.99,23.49,12.14,17.91,6.76,37.23,8.94,56.2,6.35-.78.18-1.54.37-2.35.54-15.13,3.12-30.73,3.18-45.88.18ZM112.52,1.14c9.89-1.1,19.88-.93,29.73.5,5.09.75,10.11,1.84,15.05,3.28,2.52.65,4.96,1.57,7.45,2.39l3.67,1.44c1.23.46,2.44.98,3.64,1.54,18.33,8.16,34.21,20.97,46.07,37.15h.71c-11.96-16.4-28.03-29.37-46.58-37.6-1.2-.57-2.41-1.08-3.66-1.55l-3.68-1.43c-2.5-.82-4.96-1.74-7.48-2.4-4.96-1.43-10.01-2.52-15.11-3.26-9.89-1.42-19.92-1.57-29.85-.45-5.61.66-11.17,1.71-16.64,3.15-1.12.19-2.25.39-3.37.62-11.03,2.22-21.67,6.05-31.58,11.36-4.98,2.69-9.76,5.72-14.3,9.09-4.52,3.41-8.81,7.11-12.84,11.08C1.49,68.33-8.69,116.59,7.76,159.15c.45,1.25.94,2.47,1.49,3.68l1.59,3.62c1.19,2.34,2.27,4.73,3.6,6.98,2.49,4.52,5.29,8.86,8.38,12.99,5.99,8,12.97,15.2,20.78,21.42,7.4,5.88,15.5,10.84,24.11,14.74,22.28,10.08,47.2,12.8,71.13,7.78,1.66-.33,3.28-.71,4.87-1.11,4.65-.72,9.25-1.75,13.76-3.06,2.53-.66,4.99-1.59,7.49-2.41l3.69-1.44c1.23-.47,2.45-.98,3.66-1.55,16.82-7.49,31.61-18.87,43.16-33.22h-.96c-11.43,14.02-26,25.15-42.53,32.49-1.19.56-2.39,1.07-3.63,1.54l-3.66,1.42c-2.48.82-4.93,1.74-7.44,2.39-1.7.51-3.41.95-5.13,1.35,6.92-2.34,13.61-5.33,19.96-8.94,6.68-3.76,12.94-8.2,18.7-13.26,2.03-1.69,3.44-3.17,4.45-4.09.99-.95,1.5-1.43,1.5-1.43,0,0,.49-.51,1.43-1.5.92-1,2.4-2.41,4.09-4.45,1.34-1.52,2.88-3.35,4.55-5.52h-.18c-1.63,2.13-3.14,3.94-4.45,5.44-1.69,2.04-3.16,3.45-4.08,4.46-.94.99-1.42,1.5-1.42,1.5,0,0-.51.49-1.51,1.43-1,.92-2.41,2.39-4.46,4.07-5.75,5.05-12.02,9.48-18.69,13.21-6.97,3.94-14.34,7.14-21.97,9.55-2.61.55-5.22,1.02-7.82,1.43-9.83,1.41-19.81,1.57-29.68.49-9.36-1.03-18.55-3.22-27.36-6.51-8.23-3.1-16.09-7.11-23.42-11.96-.32-.21-.62-.45-.95-.67,3.7,2.21,7.54,4.19,11.49,5.93,2.21,1.05,4.52,1.83,6.77,2.72,2.31.75,4.58,1.6,6.91,2.2,4.58,1.31,9.24,2.3,13.95,2.98,2.33.28,4.64.63,6.98.74,1.16.08,2.33.2,3.48.24,1.15.02,2.29.05,3.43.07,2.32.1,4.59-.09,6.86-.13,2.26-.19,4.52-.3,6.73-.6,8.64-1.03,17.12-3.12,25.25-6.22,7.58-2.92,14.8-6.69,21.53-11.22,7.93-5.39,15.1-11.83,21.3-19.14h-5.61c-1.63,1.41-3.19,2.86-4.87,4.19-6.63,5.36-13.89,9.88-21.62,13.46-7.25,3.33-14.84,5.86-22.63,7.54-13.75,2.88-27.93,2.99-41.71.3-17.58-3.45-33.97-11.41-47.54-23.11-1.88-1.53-3.17-2.87-4.1-3.71-.92-.85-1.38-1.3-1.38-1.3,0,0-.45-.47-1.31-1.38-.84-.92-2.2-2.21-3.73-4.08-4.62-5.26-8.68-10.98-12.1-17.09-5.4-9.46-9.23-19.72-11.36-30.4-2.8-13.83-2.8-28.09.01-41.92,1.54-7.37,3.85-14.56,6.9-21.45,1.39-2.5,2.87-4.94,4.47-7.31,11-16.4,26.41-29.37,44.45-37.4,2.15-1.03,4.41-1.81,6.6-2.69,2.24-.74,4.45-1.57,6.71-2.16,4.46-1.29,9.01-2.27,13.6-2.95,2.28-.27,4.54-.63,6.81-.74,1.13-.08,2.26-.2,3.38-.24,1.13-.03,2.26-.06,3.38-.09,2.14-.09,4.51.05,6.73.06,2.2.16,4.38.24,6.55.5,8.47.9,16.81,2.84,24.81,5.77,7.48,2.77,14.63,6.34,21.34,10.67,6.74,4.4,12.95,9.56,18.5,15.38h2.31c-5.78-6.54-12.34-12.36-19.53-17.31C134.9,3.14,82.05,6.16,45.71,37.49c.63-.65,1.26-1.29,1.92-1.9l2.49-2.36c.84-.77,1.72-1.48,2.58-2.23,1.7-1.51,3.57-2.88,5.39-4.3,3.76-2.78,7.71-5.3,11.81-7.55,2.04-1.19,4.2-2.16,6.33-3.23,2.19-.93,4.35-1.97,6.63-2.77,28.33-10.83,59.98-8.79,86.69,5.58,4.48,2.44,8.78,5.18,12.88,8.23,4.06,3.08,7.91,6.42,11.53,10.01,3.27,3.28,6.3,6.77,9.1,10.46h3.91c-.42-.55-.84-1.1-1.27-1.65-6.22-7.83-13.44-14.83-21.46-20.81-4.15-3.09-8.5-5.89-13.03-8.38-2.25-1.32-4.65-2.4-6.99-3.59l-3.63-1.59c-1.2-.54-2.44-1.04-3.69-1.49C138.81,2.99,119.29.69,100.09,3.24c4.1-.91,8.25-1.62,12.43-2.11ZM28.57,176.34c-5.59-8.47-9.91-17.72-12.83-27.44-1.45-4.89-2.55-9.88-3.28-14.92-.7-5.05-1.07-10.13-1.08-15.23.05-13.44,2.7-26.74,7.82-39.17-1.04,3.46-1.91,6.91-2.57,10.32-2.65,13.96-2.5,28.31.43,42.21,2.29,10.68,6.19,20.95,11.56,30.46,3.44,6.12,7.51,11.87,12.15,17.14,1.55,1.88,2.9,3.16,3.74,4.09.87.9,1.32,1.38,1.32,1.38,0,0,.46.45,1.37,1.32.93.85,2.2,2.21,4.06,3.77,5.25,4.67,10.98,8.79,17.09,12.27,9.5,5.44,19.78,9.42,30.47,11.79,13.95,3.06,28.37,3.3,42.42.71,16.73-3.1,32.45-10.23,45.8-20.77,2.54-1.98,5.01-4.11,7.4-6.38-6.1,6.89-13.07,12.96-20.74,18.04-6.71,4.41-13.91,8.05-21.44,10.85-8.06,2.97-16.46,4.93-25,5.84-2.19.27-4.41.35-6.64.51-2.23,0-4.49.16-6.73.06-1.14-.03-2.29-.07-3.43-.1-1.14-.05-2.27-.17-3.41-.25-2.27-.13-4.55-.48-6.85-.77-4.63-.69-9.2-1.7-13.69-3.01-2.29-.6-4.51-1.44-6.76-2.19-2.21-.89-4.48-1.68-6.64-2.72-18.13-8.13-33.57-21.24-44.52-37.81ZM92.62,5.24c17.25-3.45,35.07-2.92,52.08,1.58-1.05-.24-2.1-.47-3.16-.67-19.89-3.94-40.49-2.14-59.39,5.19-2.3.82-4.49,1.9-6.72,2.86-2.16,1.1-4.36,2.11-6.43,3.33-4.16,2.31-8.16,4.9-11.97,7.75-1.85,1.46-3.73,2.85-5.47,4.42-.88.77-1.78,1.51-2.62,2.3l-2.49,2.37c-1.7,1.57-3.17,3.31-4.75,4.94-1.46,1.74-2.98,3.41-4.34,5.19-1.46,1.88-2.86,3.79-4.19,5.73-2.47,2.98-4.78,6.1-6.91,9.34-3.27,4.97-6.11,10.21-8.51,15.66,2.98-8.07,6.88-15.77,11.62-22.95,8.49-12.9,19.48-23.98,32.31-32.58,7.34-4.87,15.2-8.9,23.44-12.01,2.16-.82,4.35-1.57,6.58-2.24.3-.07.6-.14.91-.2"/><path class="cls-1" d="M102.15,92.32c.51,1.54.62,3.37.35,5.46-.25,2.17-.94,4.32-2.07,6.46-1.11,2.12-2.47,3.88-4.08,5.29-1.77,1.54-3.78,2.73-6.01,3.56-2.19.83-4.75,1.25-7.68,1.25h-1.04c-4.54,0-9.33-.89-14.38-2.66l.14-1.28,1.49-11.89h4.04c.92,0,1.42.42,1.49,1.25,0,1.75-.02,3.71-.07,5.88,1.98.62,5.16.93,9.54.93,2.79,0,4.99-.63,6.6-1.9,1.66-1.31,2.63-3.16,2.9-5.53.14-1.31-.08-2.42-.66-3.32-.58-.9-1.37-1.61-2.38-2.14-1.18-.6-2.39-1.09-3.63-1.49-2.05-.6-3.44-1.03-4.18-1.28-1.13-.39-2.5-.96-4.12-1.69-1.22-.55-2.37-1.42-3.46-2.59-.9-.97-1.6-2.29-2.11-3.98-.51-1.66-.63-3.62-.38-5.88.21-1.82.83-3.64,1.87-5.46,1.13-2,2.4-3.58,3.8-4.74,1.54-1.27,3.43-2.35,5.67-3.25,2.14-.85,4.55-1.28,7.22-1.28,4.98,0,9.77.97,14.38,2.9l-1.62,13.1h-4.04c-.92,0-1.42-.45-1.49-1.35,0-1.7.02-3.62.07-5.74-1.61-.76-4.3-1.14-8.05-1.14-1.36,0-2.55.14-3.56.41-1.11.39-1.98.84-2.63,1.35-.78.62-1.37,1.31-1.76,2.07-.41.78-.69,1.66-.83,2.63-.14,1.2.07,2.19.62,2.97.55.78,1.38,1.46,2.49,2.04,1.5.78,2.67,1.3,3.53,1.56.21.07,1.6.54,4.18,1.42.76.25,2.13.84,4.11,1.76,1.24.58,2.4,1.43,3.46,2.56,1.08,1.18,1.84,2.42,2.28,3.73Z"/><path class="cls-1" d="M136.91,77.46l-7.78,15.87h15.49l-3.8-15.87c-.35-1.31-.56-2.2-.66-2.66-.18-.9-.39-2.02-.62-3.35-.09.23-.3.74-.62,1.54-.32.8-.57,1.4-.73,1.81-.21.55-.63,1.44-1.28,2.66ZM161.14,108.33c.85.32,1.25.95,1.18,1.87l-.48,3.59h-17.28l.45-3.59c.07-.83.61-1.45,1.62-1.87.62-.21,1.12-.39,1.49-.55l-.14-.8-1.7-6.91h-20.39l-3.56,7.29-.21.42c.28.14.56.26.86.38l.48.17c.87.39,1.28,1.01,1.21,1.87l-.48,3.59h-17.28l.42-3.59c.07-.83.61-1.45,1.62-1.87.09-.02,1.46-.56,4.11-1.62l22.71-44.11h9.78l11.89,44.11c2.28,1.01,3.51,1.56,3.7,1.62Z"/><path class="cls-1" d="M237.21,62.59h2.38l-.48,4.18c-.14,1.2-.82,1.94-2.04,2.21-.02,0-.07,0-.14.02-.07.01-.17.03-.31.05-.14.02-.28.05-.41.07-.14.02-.43.07-.87.16-.44.08-.83.14-1.17.19l-19.19,44.32h-8.57l-6.95-34.98c-.02-.14-.09-.61-.21-1.42-.02-.14-.07-.4-.14-.8-.07-.39-.11-.69-.14-.9-.32.85-.54,1.42-.66,1.7-.16.46-.37.93-.62,1.42l-15.59,34.98h-8.54l-8.37-44.32c-.3-.05-.67-.11-1.11-.19-.44-.08-.74-.13-.9-.16-.14-.02-.26-.05-.36-.07-.1-.02-.18-.04-.23-.05-.05-.01-.08-.02-.1-.02-1.18-.28-1.69-1.01-1.56-2.21l.55-4.18h19.12l-.55,4.18c-.14,1.2-.79,1.94-1.97,2.21-.21,0-.36.02-.45.07-.11.07-.37.14-.76.21-.69.14-1.12.23-1.28.28l4.18,25.86c.09.58.18,1.39.28,2.45.05.71.12,1.66.21,2.83.3-1.08.61-2.03.93-2.83.11-.3.46-1.12,1.04-2.45l13.83-30.59c.32-.62.75-1.12,1.28-1.49.74-.48,1.44-.73,2.11-.73h2.84c.76,0,1.42.2,1.97.59.46.41.77.96.93,1.62l6.22,30.59c.35,1.47.59,3.15.72,5.01.09-.3.37-1.17.83-2.63.23-.74.52-1.53.86-2.39l10.47-25.79c-.6-.12-1.55-.32-2.84-.62-1.17-.28-1.69-1.01-1.56-2.21l.55-4.18h16.73Z"/><path class="cls-1" d="M263.35,77.46l-7.78,15.87h15.49l-3.8-15.87c-.35-1.31-.56-2.2-.66-2.66-.18-.9-.39-2.02-.62-3.35-.09.23-.3.74-.62,1.54-.32.8-.57,1.4-.73,1.81-.21.55-.63,1.44-1.28,2.66ZM287.58,108.33c.85.32,1.25.95,1.18,1.87l-.48,3.59h-17.28l.45-3.59c.07-.83.61-1.45,1.62-1.87.62-.21,1.12-.39,1.49-.55l-.14-.8-1.7-6.91h-20.39l-3.56,7.29-.21.42c.28.14.56.26.86.38l.48.17c.87.39,1.28,1.01,1.21,1.87l-.48,3.59h-17.28l.42-3.59c.07-.83.61-1.45,1.62-1.87.09-.02,1.46-.56,4.11-1.62l22.71-44.11h9.78l11.89,44.11c2.28,1.01,3.51,1.56,3.7,1.62Z"/><path class="cls-1" d="M77.5,130.48l.07-.07c.14,1.27.21,2.41.21,3.4v32.14c2.64.43,4.25.71,4.81.85.61.14.92.57.92,1.27v3.12h-16.92v-3.12c0-.71.38-1.13,1.13-1.27l3.97-.85v-40.36c-2.17-.42-3.49-.71-3.97-.85-.76-.14-1.13-.57-1.13-1.27v-3.12h10.19c.66,0,1.13.07,1.42.21.42.19.73.5.92.92l17.49,31.29c.43.76.97,1.98,1.63,3.68.38-1.09.92-2.34,1.63-3.75l17.13-31.22c.19-.38.52-.68.99-.92.28-.14.76-.21,1.42-.21h10.19v3.12c0,.71-.38,1.13-1.13,1.27l-4.04.85v40.36c2.26.43,3.61.71,4.04.85.76.14,1.13.57,1.13,1.27v3.12h-16.99v-3.12c0-.71.35-1.13,1.06-1.27.85-.19,2.43-.47,4.74-.85v-32.07c0-1.46.05-2.57.14-3.33l-17.42,31.72c-.57,1.09-1.37,1.63-2.41,1.63h-.99c-1.13,0-1.98-.54-2.55-1.63l-17.7-31.79Z"/><path class="cls-1" d="M137.68,120.5h36.39v12.25h-3.4c-.85,0-1.35-.4-1.49-1.2,0-.05-.02-.27-.07-.67-.05-.4-.11-1.05-.18-1.95-.07-.9-.15-1.84-.25-2.83h-18.97v16.85h18.69v5.38h-18.69v17.35h18.97c.28-3.11.42-4.81.42-5.1.14-.76.66-1.13,1.56-1.13h3.4v11.75h-36.39v-2.97c0-.76.35-1.2,1.06-1.35l4.04-.78v-40.43c-2.27-.42-3.61-.71-4.04-.85-.71-.14-1.06-.59-1.06-1.34v-2.97Z"/><path class="cls-1" d="M224.12,145.84c0-3.16-.42-5.95-1.27-8.35-.9-2.55-2.08-4.63-3.54-6.23-3.16-3.49-7.53-5.24-13.1-5.24h-11.4v39.65h11.4c5.52,0,9.89-1.75,13.1-5.24,3.21-3.49,4.81-8.35,4.81-14.58ZM231.2,145.84c0,3.78-.61,7.25-1.84,10.41-1.18,3.02-2.88,5.69-5.1,8-4.58,4.63-10.6,6.94-18.05,6.94h-23.43v-2.97c0-.76.38-1.2,1.13-1.35l3.97-.78v-40.43c-2.17-.42-3.49-.71-3.97-.85-.76-.14-1.13-.59-1.13-1.34v-2.97h23.43c7.55,0,13.57,2.31,18.05,6.94,4.63,4.72,6.94,10.86,6.94,18.41Z"/><path class="cls-1" d="M275.23,120.5h1.13v11.19h-3.47c-.76,0-1.2-.24-1.35-.71-.24-.8-.47-2.36-.71-4.67h-11.89v39.79c.19,0,.47.05.85.14,2.17.42,3.35.66,3.54.71.47.14.71.57.71,1.28v2.97h-17.13v-2.97c0-.8.4-1.27,1.2-1.42.24-.05.78-.15,1.63-.32.85-.16,1.6-.32,2.27-.46v-39.79h-11.97c-.28,2.64-.5,4.22-.64,4.74-.14.47-.61.71-1.42.71h-3.4v-11.19h40.64Z"/><path class="cls-1" d="M283.51,120.5h36.39v12.25h-3.4c-.85,0-1.35-.4-1.49-1.2,0-.05-.02-.27-.07-.67-.05-.4-.11-1.05-.18-1.95-.07-.9-.15-1.84-.25-2.83h-18.97v16.85h18.69v5.38h-18.69v17.35h18.97c.28-3.11.42-4.81.42-5.1.14-.76.66-1.13,1.56-1.13h3.4v11.75h-36.39v-2.97c0-.76.35-1.2,1.06-1.35l4.04-.78v-40.43c-2.27-.42-3.61-.71-4.04-.85-.71-.14-1.06-.59-1.06-1.34v-2.97Z"/><path class="cls-1" d="M353.67,119.93l-.14-.07c4.01,0,9.25,1.2,15.72,3.61v11.89h-3.4c-.9,0-1.42-.42-1.56-1.27-.05-.14-.14-1.2-.28-3.19-.05-.52-.09-1.03-.14-1.52-.05-.5-.08-.87-.11-1.13-.02-.26-.03-.44-.03-.53-10.53-3.35-18.48-2.2-23.86,3.47-3.45,3.73-5.17,8.61-5.17,14.65s1.7,11.05,5.1,14.73c3.21,3.49,7.39,5.24,12.53,5.24,2.93,0,5.17-.28,6.72-.85,2.5-.94,4.58-2.17,6.23-3.68.47-.38.85-.57,1.13-.57.47,0,.85.14,1.13.42l2.69,2.97c-4.39,5.1-10.48,7.65-18.27,7.65-7.32,0-13.17-2.41-17.56-7.22-4.44-4.86-6.65-11.09-6.65-18.69s2.36-13.83,7.08-18.69c4.67-4.81,10.95-7.22,18.83-7.22Z"/></g></svg>